# xmcd CD database file generated by Grip 3.2.0
# 
# Track frame offsets:
#       183
#       47508
#       100308
#       121683
#       142533
#       150933
#       157383
#       170058
#       185733
#       202458
#       216183
#       229158
#       249708
#       256983
#       265158
#       269658
#       278133
#       288558
#       299883
#       303933
# 
# Disc length: 4146 seconds
# 
# Revision: 3
# Processed by: cddbd v1.5.2PL0 Copyright (c) Steve Scherf et al.
# Submitted via: Grip 3.2.0
# 
DISCID=3f103014
DTITLE=Pepe Romero - Noches De Espana
DYEAR=1993
DGENRE=Classical
TTITLE0=Gran Jota
TTITLE1=Fantasia in D Minor
TTITLE2=Piezas caracteristicas, Op 92: No. 12 Serenata
TTITLE3=Tonadilla escristas en estilo antigu: No 7 La Maja de Goya
TTITLE4=Fantasia que contrahaze la harpa en la manera de Ludovico
TTITLE5=Canarios
TTITLE6=Fantasia XVI
TTITLE7=Sonata Op. 61 Allegro (Jaquin Turina)
TTITLE8=Sonata Op. 61 Andante (Jaquin Turina)
TTITLE9=Sonata Op. 61 Allegro vivo (Jaquin Turina)
TTITLE10=Homenaje (Manuel De Falla)
TTITLE11=Por Los Campos de Espania: En tierras de Jerez (Rodrigo)
TTITLE12=Jerigonza (Torroba)
TTITLE13=Ya llega el invierno (Torroba)
TTITLE14=Coplilla (Torroba)
TTITLE15=Los pastores (Torroba)
TTITLE16=La seguidilla (Torroba)
TTITLE17=Copla (Celedonio Romero)
TTITLE18=La rueda (Celedonio Romero)
TTITLE19=Baile (Celedonio Romero)
EXTD=YEAR: 1993
EXTT0=
EXTT1=
EXTT2=Isaac Alb駭iz (1860-1909): Piezas caracteristicas, Op.92: No.12 Torre
EXTT2=Bermeja (Serenata)
EXTT3=Granados (1867-1916): Tonadillas escritas en estilo antiguo - No.7 La 
EXTT3=mja de Goya
EXTT4=De Mudarra (1510-1580): Fantasia que contrahaze la harpa en la manera 
EXTT4=de Ludovico
EXTT5=
EXTT6=
EXTT7=Turina (1882-1949): Sonata, Op.61- I. Allegro-Allegretto tranquilo-All
EXTT7=egro
EXTT8=Turina (1882-1949): Sonata, Op.61
EXTT9=Turina (1882-1949): Sonata, Op.61- III. Allegro vivo-Allegro moderato-
EXTT9=Allegro vivo-Allegretto-Allegro vivo
EXTT10=
EXTT11=Rodrigo (1901 -): Por los campos de Espa?: En tierras de Jerez
EXTT12=Torroba (1891-1982): Aries de la Mancha
EXTT13=Torroba (1891-1982): Aries de la Mancha
EXTT14=Torroba (1891-1982): Aries de la Mancha
EXTT15=Torroba (1891-1982): Aries de la Mancha
EXTT16=Torroba (1891-1982): Aries de la Mancha
EXTT17=Romero (1918 - ): Los Maestros
EXTT18=Romero (1918 - ): Los Maestros
EXTT19=Romero (1918 - ): Los Maestros
PLAYORDER=
